{"title":"Bitter Feast 2010 DVDRip Xvid BigPerm LKRG","uid":7120542,"size":1077745173,"categoryP":"video","categoryS":"movies","magnet":"?xt=urn:btih:43ec4645164a7ec04b7e0e1e74a45ffd5ee0ee07&amp;dn=Bitter+Feast+2010+DVDRip+Xvid+BigPerm+LKRG&amp;tr=udp%3A%2F%2Ftracker.openbittorrent.com%3A80&amp;tr=udp%3A%2F%2Fopen.demonii.com%3A1337&amp;tr=udp%3A%2F%2Ftracker.coppersurfer.tk%3A6969&amp;tr=udp%3A%2F%2Fexodus.desync.com%3A6969","seeders":1,"leechers":0,"uploader":".BONE.","files":2,"time":1332353924,"description":"Encoded By .......: BigPerm\nRuntime ..........: 1h 44mn\nFile Size ........: 1.00 GB\nResolution .......: 704 x 396 &lt;a href=&quot;\nhttp://www.imdb.com/title/tt1477835/&quot; rel=&quot;nofollow&quot; target=&quot;_NEW&quot;&gt;\nhttp://www.imdb.com/title/tt1477835/&lt;/a&gt;\nGenre ............: Comedy | Horror | Thriller\nLanguage .........: English\nSubtitles ........: None\nVideo\nID : 0\nFormat : MPEG-4 Visual\nFormat profile : Advanced Simple@L5\nFormat settings, BVOP : Yes\nFormat settings, QPel : No\nFormat settings, GMC : No warppoints\nFormat settings, Matrix : Default (H.263)\nCodec ID : XVID\nCodec ID/Hint : XviD\nDuration : 1h 44mn\nBit rate : 62.2 Kbps\nWidth : 704 pixels\nHeight : 396 pixels\nDisplay aspect ratio : 16:9\nFrame rate : 23.976 fps\nColor space : YUV\nChroma subsampling : 4:2:0\nBit depth : 8 bits\nScan type : Progressive\nCompression mode : Lossy\nBits/(Pixel*Frame) : 0.009\nStream size : 46.5 MiB (5%)\nWriting library : XviD 1.2.1 (UTC 2008-12-04)\n\nAudio\nID : 1\nFormat : AC-3\nFormat/Info : Audio Coding 3\nCodec ID : 2000\nDuration : 1h 44mn\nBit rate mode : Constant\nBit rate : 448 Kbps\nChannel(s) : 6 channels\nSampling rate : 48.0 KHz\nBit depth : 16 bits\nCompression mode : Lossy\nStream size : 335 MiB (33%)\nAlignment : Aligned on interleaves\n","torrent":{"xt":"urn:btih:43ec4645164a7ec04b7e0e1e74a45ffd5ee0ee07","amp;dn":"Bitter+Feast+2010+DVDRip+Xvid+BigPerm+LKRG","amp;tr":["udp%3A%2F%2Ftracker.openbittorrent.com%3A80","udp%3A%2F%2Fopen.demonii.com%3A1337","udp%3A%2F%2Ftracker.coppersurfer.tk%3A6969","udp%3A%2F%2Fexodus.desync.com%3A6969"],"infoHash":"43ec4645164a7ec04b7e0e1e74a45ffd5ee0ee07","infoHashBuffer":{"type":"Buffer","data":[67,236,70,69,22,74,126,192,75,126,14,30,116,164,95,253,94,224,238,7]},"announce":[],"urlList":[]}}